<svg xmlns="http://www.w3.org/2000/svg" width="21.448" height="19.291" viewBox="0 0 21.448 19.291">
  <path id="Home" d="M403.074,534.526a.483.483,0,0,1-.678.083l-1.2-.91v11.146a.483.483,0,0,1-.483.483h-6.137a.483.483,0,0,1-.342-.142c-.091-.091-.292-.214-.292-.341v-5.3h-2.9v5.3a.483.483,0,0,1-.483.483h-6.279a.483.483,0,0,1-.483-.483v-11.2l-1.287.962a.483.483,0,1,1-.591-.764l10.3-7.708a.482.482,0,0,1,.594,0l10.178,7.708A.483.483,0,0,1,403.074,534.526Zm-10.56-7.393-7.767,5.8a.45.45,0,0,1,.014.069v11.355h5.312v-5.3a.483.483,0,0,1,.483-.483h3.866a.483.483,0,0,1,.483.483v5.3h5.322v-11.18a.479.479,0,0,1,.037-.185Z" transform="translate(-381.728 -526.036)"/>
</svg>
