<svg xmlns="http://www.w3.org/2000/svg" xmlns:xlink="http://www.w3.org/1999/xlink" width="18" height="18" viewBox="0 0 18 18">
  <defs>
    <clipPath id="clip-path">
      <rect id="Rectángulo_156" data-name="Rectángulo 156" width="18" height="18" fill="#fff"/>
    </clipPath>
  </defs>
  <g id="Enmascarar_grupo_4" data-name="Enmascarar grupo 4" clip-path="url(#clip-path)">
    <g id="bookmark-white_1_" data-name="bookmark-white (1)" transform="translate(1.366 0.266)">
      <path id="Trazado_161" data-name="Trazado 161" d="M16.7.586a1.322,1.322,0,0,0-.615-.481A1.3,1.3,0,0,0,15.569,0H3.285a1.3,1.3,0,0,0-.516.105,1.321,1.321,0,0,0-.615.481,1.244,1.244,0,0,0-.229.727V16.421a1.245,1.245,0,0,0,.229.727,1.32,1.32,0,0,0,.615.48,1.3,1.3,0,0,0,.516.105,1.4,1.4,0,0,0,.973-.387l5.169-4.97,5.169,4.97a1.4,1.4,0,0,0,.973.375,1.364,1.364,0,0,0,1.131-.574,1.243,1.243,0,0,0,.228-.727V1.313A1.244,1.244,0,0,0,16.7.586ZM15.428,16.058,10.47,11.3l-1.043-1-1.043,1L3.425,16.058V1.5h12V16.058Z" transform="translate(-1.925)" fill="#17181a"/>
    </g>
  </g>
</svg>
