<svg xmlns="http://www.w3.org/2000/svg" width="19.658" height="19.658" viewBox="0 0 19.658 19.658">
  <g id="Grupo_3" data-name="Grupo 3" transform="translate(-301 -771)">
    <circle id="Elipse_6" data-name="Elipse 6" cx="1" cy="1" r="1" transform="translate(309 779)" fill="#00e2ff" opacity="0"/>
    <text id="Me" transform="translate(304 786)" fill="#333" font-size="13" font-family="BebasNeueBold, Bebas Neue" letter-spacing="0.05em" opacity="0"><tspan x="0" y="0">Me</tspan></text>
    <path id="Profile" d="M724.329,544.658a9.829,9.829,0,1,1,9.829-9.829A9.84,9.84,0,0,1,724.329,544.658Zm6.066-3.315a6.645,6.645,0,0,0-1.916-.653c-.964-.239-2.25-.413-2.137-1.521a3.038,3.038,0,0,1-3.079.507c-.332-.136-.555-.419-.8-.4.067,1.08-1.246,1.2-2.137,1.412a5.749,5.749,0,0,0-1.985.727,8.862,8.862,0,0,0,12.051-.074ZM725,529.316c-2.992-.258-4.454,1.786-4.021,4.781-.118.051-.292.046-.326.181.008.9.177,1.635.833,1.884.327,1.474,1.368,3.2,3.224,2.97,1.5-.185,2.319-1.639,2.645-2.97.631-.255.857-1.094.8-1.92-.014-.144-.24-.073-.326-.145C728.364,531.751,727.01,529.489,725,529.316Zm-.673-3.4a8.9,8.9,0,0,0-6.556,14.934,2.72,2.72,0,0,1,.528-.376c.953-.5,2.2-.441,3.369-1.014v-1.014c-.471-.426-.546-1.126-.869-1.7-.194-.346-.494-.54-.652-.906a3,3,0,0,1-.29-1.521c.032-.3.22-.492.254-.761.046-.375-.034-.766,0-1.123a4.289,4.289,0,0,1,3.695-3.912h1.231a4.293,4.293,0,0,1,3.695,4.2c.017.269-.08.568-.036.869.041.282.274.525.29.833a3.021,3.021,0,0,1-.978,2.318,4.914,4.914,0,0,1-.833,1.7v.978c.976.579,2.292.535,3.26,1.014a3.062,3.062,0,0,1,.521.334,8.9,8.9,0,0,0-6.627-14.856Z" transform="translate(-413.5 246)" fill="#333"/>
  </g>
</svg>
