<svg xmlns="http://www.w3.org/2000/svg" width="22.383" height="19.456" viewBox="0 0 22.383 19.456">
  <path id="Favorite" d="M734.178,306.137c-.018.02-.037.039-.056.057l.011-.01-.025.025c-1.485,1.482-7.985,7.647-8.244,7.892a1.46,1.46,0,0,1-2.046.014l-8.247-7.9-.031-.032-.066-.065c-.022-.022-.043-.045-.063-.069a6.517,6.517,0,0,1,9.423-9.006,6.518,6.518,0,1,1,9.343,9.09Zm-4.666-10.066a5.512,5.512,0,0,0-4.676,2.592,5.515,5.515,0,1,0-8.652,6.749h0l.065.065.033.033,8.231,7.88a.459.459,0,0,0,.647,0s6.785-6.434,8.254-7.9h0l.024-.024h0a5.516,5.516,0,0,0-3.925-9.392Zm-9.339,2.278a3.34,3.34,0,0,0-3.336,3.336.5.5,0,1,1-1,0,4.343,4.343,0,0,1,4.338-4.338.5.5,0,0,1,0,1Z" transform="translate(-713.646 -295.069)" fill="#333"/>
</svg>
