<svg xmlns="http://www.w3.org/2000/svg" xmlns:xlink="http://www.w3.org/1999/xlink" width="146" height="52" viewBox="0 0 146 52">
  <defs>
    <clipPath id="clip-path">
      <rect id="Rect치ngulo_165" data-name="Rect치ngulo 165" width="25" height="27" transform="translate(0.433 0.348)" fill="#fff" stroke="#707070" stroke-width="1"/>
    </clipPath>
  </defs>
  <g id="Grupo_256" data-name="Grupo 256" transform="translate(-45 -732.773)">
    <g id="Grupo_251" data-name="Grupo 251" transform="translate(45 733)">
      <rect id="Rect치ngulo_141" data-name="Rect치ngulo 141" width="146" height="52" rx="5" transform="translate(0 -0.227)" fill="#fff"/>
    </g>
    <g id="Enmascarar_grupo_10" data-name="Enmascarar grupo 10" transform="translate(61.567 745.426)" clip-path="url(#clip-path)">
      <g id="search" transform="translate(-0.021 0.228)">
        <path id="Trazado_173" data-name="Trazado 173" d="M5.824,16.076l-.915,3.415-3.343.071a13.163,13.163,0,0,1-.1-12.27h0l2.977.546L5.75,10.8a7.842,7.842,0,0,0,.074,5.28Z" transform="translate(0 -0.194)" fill="#fbbb00"/>
        <path id="Trazado_174" data-name="Trazado 174" d="M26.418,10.978a13.135,13.135,0,0,1-4.684,12.7h0l-3.749-.191-.531-3.312a7.831,7.831,0,0,0,3.369-4H13.8v-5.2H26.418Z" transform="translate(-0.368 -0.293)" fill="#518ef8"/>
        <path id="Trazado_175" data-name="Trazado 175" d="M21.408,23.821h0a13.144,13.144,0,0,1-19.8-4.02l4.258-3.486a7.815,7.815,0,0,0,11.261,4Z" transform="translate(-0.043 -0.435)" fill="#28b446"/>
        <path id="Trazado_176" data-name="Trazado 176" d="M21.567,3.025,17.311,6.51A7.814,7.814,0,0,0,5.791,10.6L1.51,7.1h0A13.143,13.143,0,0,1,21.567,3.025Z" transform="translate(-0.04)" fill="#f14336"/>
      </g>
    </g>
    <text id="Google" transform="translate(98 764.773)" fill="#696c79" font-size="14" font-family="Futura-Medium, Futura" font-weight="500" letter-spacing="-0.027em"><tspan x="0" y="0">Google</tspan></text>
  </g>
</svg>
