<svg xmlns="http://www.w3.org/2000/svg" width="27.54" height="19.679" viewBox="0 0 27.54 19.679">
  <g id="Grupo_5" data-name="Grupo 5" transform="translate(-126 -771)">
    <circle id="Elipse_4" data-name="Elipse 4" cx="3" cy="3" r="3" transform="translate(136 777)" fill="#00ff80" opacity="0"/>
    <text id="Cart" transform="translate(129 786)" fill="#333" font-size="13" font-family="BebasNeueBold, Bebas Neue" letter-spacing="0.05em" opacity="0"><tspan x="0" y="0">Cart</tspan></text>
    <path id="Cart-2" data-name="Cart" d="M145.536,456.8H143.85l-2.614,12.573a.519.519,0,0,1-.508.408H123.914a.52.52,0,0,1-.506-.4L120.591,456.8h-1.555a.52.52,0,1,1,0-1.04h6.21l5.174-5.494a.52.52,0,1,1,.756.713l-4.5,4.781h11.538l-4.5-4.781a.52.52,0,1,1,.757-.713l5.174,5.494h5.9a.52.52,0,0,1,0,1.04Zm-23.88,0,2.668,11.941h15.986l2.478-11.941Zm16.364,9.376a.519.519,0,0,1-.52-.519l-.013-6.211a.52.52,0,1,1,1.039,0l.013,6.211a.519.519,0,0,1-.519.521Zm-3.64,0a.519.519,0,0,1-.521-.519l-.013-6.211a.52.52,0,1,1,1.039,0l.013,6.211a.519.519,0,0,1-.519.521Zm-3.64,0a.519.519,0,0,1-.52-.519l-.013-6.211a.52.52,0,1,1,1.039,0l.013,6.211a.519.519,0,0,1-.519.521Zm-3.64,0a.519.519,0,0,1-.521-.519l-.013-6.211a.52.52,0,1,1,1.04,0l.013,6.211a.519.519,0,0,1-.519.521Z" transform="translate(7.484 320.897)" fill="#333"/>
  </g>
</svg>
