<svg xmlns="http://www.w3.org/2000/svg" width="121.846" height="43.853" viewBox="0 0 121.846 43.853">
  <path id="Trazado_4" data-name="Trazado 4" d="M363.465,272.26c-7.929,9.311-15.531,20.858-15.608,29.489a10.225,10.225,0,0,0,3.494,8.231,16.957,16.957,0,0,0,11.446,4.188c5.734.008,11.428-2.305,15.887-4.089,7.508-3,90.505-39.046,90.505-39.046.8-.4.651-.9-.351-.651-.4.1-90.356,24.478-90.356,24.478a19.835,19.835,0,0,1-5.235.75c-6.913.041-13.064-3.8-13.015-11.882.02-3.165.989-6.979,3.233-11.468Z" transform="translate(-347.856 -270.315)" fill="#fff" fill-rule="evenodd"/>
</svg>
